<svg id="Ebene_1" data-name="Ebene 1" xmlns="http://www.w3.org/2000/svg" viewBox="0 0 208.86 40.97"><defs><style>.cls-1{fill:#1d1d1b;}.cls-2{fill:#FE7F02;}.cls-3{fill:#fff;}.cls-4{fill:none;}</style></defs><path class="cls-1" d="M236.85,423.36c0-3.32,1.83-6.5,5.48-6.5s5.47,3.18,5.47,6.5-1.85,6.49-5.47,6.49S236.85,426.65,236.85,423.36Zm7.57,0c0-1.56-.31-4.07-2.09-4.07s-2.09,2.51-2.09,4.07.31,4.07,2.09,4.07S244.42,424.92,244.42,423.36Z" transform="translate(-186.83 -400.47)"/><path class="cls-1" d="M257.29,420.78c-.15-.87-.44-1.49-1.42-1.49a1.31,1.31,0,0,0-1.33,1.38c0,2.13,6,.58,6,5.25,0,2.64-2.2,3.93-4.73,3.93s-4.19-1.24-4.52-3.82l3.09-.34c.07.89.54,1.74,1.54,1.74.82,0,1.6-.38,1.6-1.34,0-2.17-6-.4-6-5.24,0-2.52,2.16-4,4.58-4a4.23,4.23,0,0,1,4.32,3.54Z" transform="translate(-186.83 -400.47)"/><path class="cls-1" d="M278.29,429.59h-3.56l-2.31-12h-.05l-2.33,12h-3.56l-3.65-17.31h3.43l2.06,12.19h.05l2.16-12.19h3.82l2.16,12.19h.05l2.24-12.19h3.43Z" transform="translate(-186.83 -400.47)"/><path class="cls-1" d="M295.77,415.22h-7.3v4.13h5.63v2.94h-5.63v7.3H285V412.28h10.77Z" transform="translate(-186.83 -400.47)"/><path class="cls-1" d="M302.53,419.31c1.27-1.49,2.29-2.45,3.8-2.45H307v3.3a4.36,4.36,0,0,0-1-.14,3.78,3.78,0,0,0-3.47,4.1v5.47h-3.29V417.13h3.29Z" transform="translate(-186.83 -400.47)"/><path class="cls-1" d="M317.39,428.45a5.33,5.33,0,0,1-3.54,1.4,3.69,3.69,0,0,1-3.92-3.69c0-3.51,4.63-4.22,7.28-4.51.22-1.74-.36-2.36-1.58-2.36a1.78,1.78,0,0,0-2,1.56l-3.16-.49c.73-2.65,2.51-3.5,5.12-3.5,3.36,0,4.89,1.6,4.89,3.94V427a5.82,5.82,0,0,0,.45,2.6h-3.21Zm-.18-4.56c-1.36.25-4,.38-4,2.2,0,.74.36,1.34,1.13,1.34a3.65,3.65,0,0,0,2.92-1.62Z" transform="translate(-186.83 -400.47)"/><path class="cls-1" d="M328,418.42a6,6,0,0,1,3.71-1.56,3.25,3.25,0,0,1,3.18,1.72,6,6,0,0,1,3.85-1.72,3.38,3.38,0,0,1,3.5,3.72v9H339v-7.86c0-1,.07-2.22-1.31-2.22a3.18,3.18,0,0,0-2.51,1.47v8.61h-3.29v-7.86c0-1,.06-2.22-1.32-2.22A3.18,3.18,0,0,0,328,421v8.61h-3.29V417.13H328Z" transform="translate(-186.83 -400.47)"/><path class="cls-1" d="M349.37,424.14c-.12,1.51.8,3.29,2.49,3.29,1.18,0,1.82-1,2.07-2l3,.55a5.57,5.57,0,0,1-5.45,3.87c-3.62,0-5.47-3.2-5.47-6.49s1.83-6.5,5.47-6.5c3.14,0,5.54,1.49,5.45,7.28Zm4.38-2.07c0-1.4-.56-2.78-2.14-2.78s-2.09,1.44-2.13,2.78Z" transform="translate(-186.83 -400.47)"/><rect class="cls-2" width="40.97" height="40.97" rx="7.26"/><path class="cls-3" d="M193.15,408l8.85,8.86a2.88,2.88,0,0,0-.21,1.13v.32h-9v-8.68a3.33,3.33,0,0,1,.38-1.63m-.38,15.59h9v.32A3.16,3.16,0,0,0,202,425l-8.86,8.86a4.19,4.19,0,0,1-.4-1.6Zm11.91-5.28H210v5.28h-5.27Zm-1.45,8a2.88,2.88,0,0,0,1.13.21h.32v9H196a3.33,3.33,0,0,1-1.63-.37Zm6.73.21h.32a3.16,3.16,0,0,0,1.1-.24l8.86,8.86a4.07,4.07,0,0,1-1.6.39H210Zm11.53,7.42-8.85-8.86a2.88,2.88,0,0,0,.21-1.13v-.32h9v8.68a3.33,3.33,0,0,1-.37,1.63m.37-15.59h-9V418a3.16,3.16,0,0,0-.24-1.1l8.86-8.86a4.07,4.07,0,0,1,.39,1.6Zm-10.45-2.68a2.88,2.88,0,0,0-1.13-.21H210v-9h8.68a3.33,3.33,0,0,1,1.63.37Zm-6.73-.21h-.32a3.16,3.16,0,0,0-1.1.24l-8.86-8.86a4.07,4.07,0,0,1,1.6-.39h8.68ZM190.52,409v9.32h-1.94v5.28h1.94v9.32s0,4.84,4.84,4.84h9.32v1.94H210v-1.94h9.32s4.84,0,4.84-4.84V423.6h1.94v-5.28h-1.94V409s0-4.84-4.84-4.84H210v-1.94h-5.28v1.94h-9.32s-4.84,0-4.84,4.84" transform="translate(-186.83 -400.47)"/><rect class="cls-4" width="208.86" height="40.97"/></svg>