<svg xmlns="http://www.w3.org/2000/svg" viewBox="0 0 77.47 77.47"><defs><style>.cls-1{fill:#777;}.cls-2{fill:#fff;}</style></defs><title>Element 3</title><g id="Ebene_2" data-name="Ebene 2"><g id="Ebene_1-2" data-name="Ebene 1"><path class="cls-1" d="M13.72,0S0,0,0,13.72v50S0,77.47,13.72,77.47h50s13.72,0,13.72-13.72v-50S77.47,0,63.74,0Z"/><path class="cls-2" d="M11.93,14.25,28.68,31a5.36,5.36,0,0,0-.41,2.14v.61h-17V17.32a6.42,6.42,0,0,1,.7-3.07m-.7,29.47h17v.61a6.16,6.16,0,0,0,.46,2.09L12,63.16a7.61,7.61,0,0,1-.75-3Zm22.52-10h10v10h-10ZM31,48.78a5.35,5.35,0,0,0,2.14.41h.61v17H17.32a6.42,6.42,0,0,1-3.07-.7Zm12.72.41h.61a6.15,6.15,0,0,0,2.09-.46L63.16,65.48a7.6,7.6,0,0,1-3,.75H43.72Zm21.82,14L48.78,46.47a5.36,5.36,0,0,0,.41-2.14v-.61h17V60.14a6.42,6.42,0,0,1-.7,3.07m.7-29.47h-17v-.61A6.16,6.16,0,0,0,48.73,31L65.48,14.3a7.6,7.6,0,0,1,.75,3ZM46.47,28.68a5.36,5.36,0,0,0-2.14-.41h-.61v-17H60.14a6.42,6.42,0,0,1,3.07.7Zm-12.72-.41h-.61a6.16,6.16,0,0,0-2.09.46L14.3,12a7.6,7.6,0,0,1,3-.75H33.75ZM7,16.11V33.75H3.31v10H7V61.35s0,9.14,9.14,9.14H33.75v3.67h10V70.49H61.35s9.14,0,9.14-9.14V43.72h3.67v-10H70.49V16.11S70.49,7,61.35,7H43.72V3.31h-10V7H16.11S7,7,7,16.11"/></g></g></svg>