<svg xmlns="http://www.w3.org/2000/svg" viewBox="0 0 345.66 77.47"><defs><style>.cls-1{fill:#777;}.cls-2{fill:#fff;}</style></defs><title>Element 5</title><g id="Ebene_2" data-name="Ebene 2"><g id="Ebene_1-2" data-name="Ebene 1"><path class="cls-1" d="M13.72,0S0,0,0,13.72v50S0,77.47,13.72,77.47h50s13.72,0,13.72-13.72v-50S77.47,0,63.74,0Z"/><path class="cls-2" d="M11.93,14.25,28.68,31a5.36,5.36,0,0,0-.41,2.14v.61h-17V17.32a6.42,6.42,0,0,1,.7-3.07m-.7,29.47h17v.61a6.16,6.16,0,0,0,.46,2.09L12,63.16a7.61,7.61,0,0,1-.75-3Zm22.52-10h10v10h-10ZM31,48.78a5.35,5.35,0,0,0,2.14.41h.61v17H17.32a6.42,6.42,0,0,1-3.07-.7Zm12.72.41h.61a6.15,6.15,0,0,0,2.09-.46L63.16,65.48a7.6,7.6,0,0,1-3,.75H43.72Zm21.82,14L48.78,46.47a5.36,5.36,0,0,0,.41-2.14v-.61h17V60.14a6.42,6.42,0,0,1-.7,3.07m.7-29.47h-17v-.61A6.16,6.16,0,0,0,48.73,31L65.48,14.3a7.6,7.6,0,0,1,.75,3ZM46.47,28.68a5.36,5.36,0,0,0-2.14-.41h-.61v-17H60.14a6.42,6.42,0,0,1,3.07.7Zm-12.72-.41h-.61a6.16,6.16,0,0,0-2.09.46L14.3,12a7.6,7.6,0,0,1,3-.75H33.75ZM7,16.11V33.75H3.31v10H7V61.35s0,9.14,9.14,9.14H33.75v3.67h10V70.49H61.35s9.14,0,9.14-9.14V43.72h3.67v-10H70.49V16.11S70.49,7,61.35,7H43.72V3.31h-10V7H16.11S7,7,7,16.11"/><path class="cls-1" d="M88.9,44.71a16.51,16.51,0,0,1,2-7.79,13.61,13.61,0,0,1,5.62-5.75,16.68,16.68,0,0,1,8.12-2A15.24,15.24,0,0,1,116,33.69a15.54,15.54,0,0,1,4.43,11.37,15.72,15.72,0,0,1-4.47,11.48,15.1,15.1,0,0,1-11.25,4.55,17.72,17.72,0,0,1-8-1.9,13,13,0,0,1-5.79-5.56A18.53,18.53,0,0,1,88.9,44.71Zm8.28.43q0,4.54,2.16,7a7,7,0,0,0,10.62,0q2.14-2.41,2.14-7t-2.14-6.9a7,7,0,0,0-10.62,0Q97.17,40.6,97.17,45.14Z"/><path class="cls-1" d="M123.87,51.7l8.1-1.24a5.94,5.94,0,0,0,2.1,3.58,7.09,7.09,0,0,0,4.43,1.22,8,8,0,0,0,4.71-1.15A2.56,2.56,0,0,0,144.27,52a2.12,2.12,0,0,0-.57-1.52,6.43,6.43,0,0,0-2.7-1.06q-9.77-2.16-12.39-3.94A7.86,7.86,0,0,1,125,38.56a8.46,8.46,0,0,1,3.13-6.67q3.13-2.7,9.71-2.7,6.26,0,9.31,2a10.43,10.43,0,0,1,4.2,6l-7.62,1.41a4.72,4.72,0,0,0-1.85-2.73A6.78,6.78,0,0,0,138,35a8.78,8.78,0,0,0-4.57.89,1.91,1.91,0,0,0-.92,1.64,1.79,1.79,0,0,0,.8,1.47q1.09.8,7.54,2.27t9,3.59a7.47,7.47,0,0,1,2.53,6,9.22,9.22,0,0,1-3.51,7.21q-3.51,3-10.37,3-6.24,0-9.87-2.53A11.65,11.65,0,0,1,123.87,51.7Z"/><path class="cls-1" d="M165.48,60.4,155.42,18.27h8.71l6.35,28.94,7.7-28.94H188.3l7.39,29.43,6.47-29.43h8.56L200.48,60.4h-9l-8.39-31.5-8.36,31.5Z"/><path class="cls-1" d="M225.8,60.4V23.24H211.92v-5h33.39v5H231.37V60.4Z"/><path class="cls-1" d="M241.92,45.14q0-8.48,4.71-12.56a14.21,14.21,0,0,1,9.6-3.39,13.69,13.69,0,0,1,10.29,4.12q4,4.12,4,11.39,0,5.89-1.77,9.27a12.51,12.51,0,0,1-5.14,5.24,15,15,0,0,1-7.37,1.87A13.72,13.72,0,0,1,245.87,57Q241.92,52.87,241.92,45.14Zm5.32,0q0,5.86,2.56,8.78a8.52,8.52,0,0,0,12.85,0Q265.2,51,265.2,45q0-5.66-2.57-8.58a8.53,8.53,0,0,0-12.83,0Q247.24,39.28,247.24,45.14Z"/><path class="cls-1" d="M274.65,45.14q0-8.48,4.71-12.56a14.21,14.21,0,0,1,9.6-3.39,13.69,13.69,0,0,1,10.29,4.12q4,4.12,4,11.39,0,5.89-1.77,9.27a12.51,12.51,0,0,1-5.14,5.24A15,15,0,0,1,289,61.09,13.72,13.72,0,0,1,278.6,57Q274.65,52.87,274.65,45.14Zm5.32,0q0,5.86,2.56,8.78a8.52,8.52,0,0,0,12.85,0Q297.93,51,297.93,45q0-5.66-2.57-8.58a8.53,8.53,0,0,0-12.83,0Q280,39.28,280,45.14Z"/><path class="cls-1" d="M309.2,60.4V18.27h5.17V60.4Z"/><path class="cls-1" d="M320.32,51.29l5.12-.8a7.15,7.15,0,0,0,2.4,4.71,8.37,8.37,0,0,0,5.5,1.64q3.56,0,5.29-1.45A4.34,4.34,0,0,0,340.35,52a3.14,3.14,0,0,0-1.52-2.76,22.42,22.42,0,0,0-5.29-1.75A48.11,48.11,0,0,1,325.65,45a7.53,7.53,0,0,1-4.47-7,7.86,7.86,0,0,1,.93-3.78,8.39,8.39,0,0,1,2.54-2.89,10.72,10.72,0,0,1,3.29-1.51,15.67,15.67,0,0,1,4.47-.62,17.67,17.67,0,0,1,6.31,1,8.58,8.58,0,0,1,4,2.8,11,11,0,0,1,1.78,4.73l-5.06.69a5.53,5.53,0,0,0-2-3.68,7.31,7.31,0,0,0-4.67-1.32q-3.56,0-5.09,1.18a3.43,3.43,0,0,0-1.52,2.76,2.85,2.85,0,0,0,.63,1.81,4.55,4.55,0,0,0,2,1.38q.78.29,4.57,1.32A63.7,63.7,0,0,1,341,44.3a7.78,7.78,0,0,1,3.4,2.72,7.58,7.58,0,0,1,1.24,4.43,8.69,8.69,0,0,1-1.51,4.87,9.75,9.75,0,0,1-4.35,3.53,15.84,15.84,0,0,1-6.44,1.25q-5.95,0-9.07-2.47A11.5,11.5,0,0,1,320.32,51.29Z"/></g></g></svg>